<mxfile host="Electron" agent="Mozilla/5.0 (Windows NT 10.0; Win64; x64) AppleWebKit/537.36 (KHTML, like Gecko) draw.io/24.7.8 Chrome/128.0.6613.36 Electron/32.0.1 Safari/537.36" version="24.7.8" pages="5">
  <diagram name="Page-1" id="ugB1AKDfrTTPttApw8U9">
    <mxGraphModel dx="794" dy="528" grid="1" gridSize="10" guides="1" tooltips="1" connect="1" arrows="1" fold="1" page="1" pageScale="1" pageWidth="1169" pageHeight="827" math="0" shadow="0">
      <root>
        <mxCell id="0" />
        <mxCell id="1" parent="0" />
        <mxCell id="Y1b6gKu8gfl-M3p3f_V2-21" value="" style="rounded=0;whiteSpace=wrap;html=1;fontFamily=Sofia Sans Semi Condensed;fontSize=15;container=0;" parent="1" vertex="1">
          <mxGeometry x="290" y="110" width="790" height="450" as="geometry" />
        </mxCell>
        <mxCell id="Y1b6gKu8gfl-M3p3f_V2-7" value="controller" style="rounded=0;whiteSpace=wrap;html=1;fontFamily=Sofia Sans Semi Condensed;fontSize=15;container=0;" parent="1" vertex="1">
          <mxGeometry x="310" y="160" width="90" height="30" as="geometry" />
        </mxCell>
        <mxCell id="Y1b6gKu8gfl-M3p3f_V2-8" value="" style="rounded=0;whiteSpace=wrap;html=1;fontFamily=Sofia Sans Semi Condensed;fontSize=15;container=0;" parent="1" vertex="1">
          <mxGeometry x="310" y="190" width="240" height="110" as="geometry" />
        </mxCell>
        <mxCell id="Y1b6gKu8gfl-M3p3f_V2-27" value="guest.controller.php" style="rounded=0;whiteSpace=wrap;html=1;container=0;" parent="1" vertex="1">
          <mxGeometry x="340" y="220" width="120" height="30" as="geometry" />
        </mxCell>
        <mxCell id="Y1b6gKu8gfl-M3p3f_V2-13" value="index" style="rounded=0;whiteSpace=wrap;html=1;fontFamily=Sofia Sans Semi Condensed;fontSize=15;container=0;" parent="1" vertex="1">
          <mxGeometry x="320" y="340" width="90" height="30" as="geometry" />
        </mxCell>
        <mxCell id="Y1b6gKu8gfl-M3p3f_V2-14" value="" style="rounded=0;whiteSpace=wrap;html=1;fontFamily=Sofia Sans Semi Condensed;fontSize=15;container=0;" parent="1" vertex="1">
          <mxGeometry x="320" y="370" width="175" height="170" as="geometry" />
        </mxCell>
        <mxCell id="Y1b6gKu8gfl-M3p3f_V2-16" value="admin.index.php" style="rounded=0;whiteSpace=wrap;html=1;container=0;" parent="1" vertex="1">
          <mxGeometry x="345" y="390" width="120" height="30" as="geometry" />
        </mxCell>
        <mxCell id="Y1b6gKu8gfl-M3p3f_V2-18" value="guest.index.php" style="rounded=0;whiteSpace=wrap;html=1;container=0;" parent="1" vertex="1">
          <mxGeometry x="345" y="490" width="120" height="30" as="geometry" />
        </mxCell>
        <mxCell id="Y1b6gKu8gfl-M3p3f_V2-17" value="user.index.php" style="rounded=0;whiteSpace=wrap;html=1;container=0;" parent="1" vertex="1">
          <mxGeometry x="345" y="440" width="120" height="30" as="geometry" />
        </mxCell>
        <mxCell id="Y1b6gKu8gfl-M3p3f_V2-10" value="model" style="rounded=0;whiteSpace=wrap;html=1;fontFamily=Sofia Sans Semi Condensed;fontSize=15;container=0;" parent="1" vertex="1">
          <mxGeometry x="650" y="130" width="90" height="30" as="geometry" />
        </mxCell>
        <mxCell id="Y1b6gKu8gfl-M3p3f_V2-11" value="" style="rounded=0;whiteSpace=wrap;html=1;fontFamily=Sofia Sans Semi Condensed;fontSize=15;container=0;" parent="1" vertex="1">
          <mxGeometry x="650" y="160" width="410" height="160" as="geometry" />
        </mxCell>
        <mxCell id="Y1b6gKu8gfl-M3p3f_V2-29" value="guest.model.php" style="rounded=0;whiteSpace=wrap;html=1;container=0;" parent="1" vertex="1">
          <mxGeometry x="670" y="174" width="120" height="30" as="geometry" />
        </mxCell>
        <mxCell id="Y1b6gKu8gfl-M3p3f_V2-28" value="admin.model.php" style="rounded=0;whiteSpace=wrap;html=1;container=0;" parent="1" vertex="1">
          <mxGeometry x="670" y="220" width="120" height="30" as="geometry" />
        </mxCell>
        <mxCell id="Y1b6gKu8gfl-M3p3f_V2-30" value="user.model.php" style="rounded=0;whiteSpace=wrap;html=1;container=0;" parent="1" vertex="1">
          <mxGeometry x="670" y="270" width="120" height="30" as="geometry" />
        </mxCell>
        <mxCell id="Y1b6gKu8gfl-M3p3f_V2-36" value="CustomPDO.php" style="rounded=0;whiteSpace=wrap;html=1;container=0;" parent="1" vertex="1">
          <mxGeometry x="900" y="220" width="120" height="30" as="geometry" />
        </mxCell>
        <mxCell id="Y1b6gKu8gfl-M3p3f_V2-37" value="" style="endArrow=classic;html=1;rounded=0;dashed=1;dashPattern=8 8;" parent="1" source="Y1b6gKu8gfl-M3p3f_V2-30" target="Y1b6gKu8gfl-M3p3f_V2-36" edge="1">
          <mxGeometry width="50" height="50" relative="1" as="geometry">
            <mxPoint x="1215" y="10" as="sourcePoint" />
            <mxPoint x="770" y="230" as="targetPoint" />
          </mxGeometry>
        </mxCell>
        <mxCell id="Y1b6gKu8gfl-M3p3f_V2-38" value="" style="endArrow=classic;html=1;rounded=0;dashed=1;dashPattern=8 8;" parent="1" source="Y1b6gKu8gfl-M3p3f_V2-29" target="Y1b6gKu8gfl-M3p3f_V2-36" edge="1">
          <mxGeometry width="50" height="50" relative="1" as="geometry">
            <mxPoint x="800" y="292" as="sourcePoint" />
            <mxPoint x="900" y="288" as="targetPoint" />
          </mxGeometry>
        </mxCell>
        <mxCell id="Y1b6gKu8gfl-M3p3f_V2-39" value="" style="endArrow=classic;html=1;rounded=0;dashed=1;dashPattern=8 8;" parent="1" source="Y1b6gKu8gfl-M3p3f_V2-28" target="Y1b6gKu8gfl-M3p3f_V2-36" edge="1">
          <mxGeometry width="50" height="50" relative="1" as="geometry">
            <mxPoint x="810" y="302" as="sourcePoint" />
            <mxPoint x="910" y="298" as="targetPoint" />
          </mxGeometry>
        </mxCell>
        <mxCell id="Y1b6gKu8gfl-M3p3f_V2-20" value="app-backend" style="rounded=0;whiteSpace=wrap;html=1;fontFamily=Sofia Sans Semi Condensed;fontSize=15;container=0;" parent="1" vertex="1">
          <mxGeometry x="290" y="80" width="90" height="30" as="geometry" />
        </mxCell>
        <mxCell id="Y1b6gKu8gfl-M3p3f_V2-22" value="index.php" style="rounded=0;whiteSpace=wrap;html=1;container=0;" parent="1" vertex="1">
          <mxGeometry x="670" y="440" width="120" height="30" as="geometry" />
        </mxCell>
        <mxCell id="Y1b6gKu8gfl-M3p3f_V2-25" value="" style="endArrow=classic;html=1;rounded=0;dashed=1;dashPattern=8 8;" parent="1" source="Y1b6gKu8gfl-M3p3f_V2-22" target="Y1b6gKu8gfl-M3p3f_V2-14" edge="1">
          <mxGeometry width="50" height="50" relative="1" as="geometry">
            <mxPoint x="400" y="990" as="sourcePoint" />
            <mxPoint x="450" y="940" as="targetPoint" />
          </mxGeometry>
        </mxCell>
        <mxCell id="Y1b6gKu8gfl-M3p3f_V2-31" value="" style="endArrow=classic;html=1;rounded=0;dashed=1;dashPattern=8 8;" parent="1" source="Y1b6gKu8gfl-M3p3f_V2-18" target="Y1b6gKu8gfl-M3p3f_V2-27" edge="1">
          <mxGeometry width="50" height="50" relative="1" as="geometry">
            <mxPoint x="490" y="715" as="sourcePoint" />
            <mxPoint x="390" y="715" as="targetPoint" />
          </mxGeometry>
        </mxCell>
        <mxCell id="Y1b6gKu8gfl-M3p3f_V2-32" value="" style="endArrow=classic;html=1;rounded=0;dashed=1;dashPattern=8 8;" parent="1" source="Y1b6gKu8gfl-M3p3f_V2-27" target="Y1b6gKu8gfl-M3p3f_V2-29" edge="1">
          <mxGeometry width="50" height="50" relative="1" as="geometry">
            <mxPoint x="500" y="725" as="sourcePoint" />
            <mxPoint x="400" y="725" as="targetPoint" />
          </mxGeometry>
        </mxCell>
        <mxCell id="Y1b6gKu8gfl-M3p3f_V2-34" value="" style="endArrow=classic;html=1;rounded=0;dashed=1;dashPattern=8 8;" parent="1" source="Y1b6gKu8gfl-M3p3f_V2-16" target="Y1b6gKu8gfl-M3p3f_V2-28" edge="1">
          <mxGeometry width="50" height="50" relative="1" as="geometry">
            <mxPoint x="530" y="482" as="sourcePoint" />
            <mxPoint x="270" y="468" as="targetPoint" />
          </mxGeometry>
        </mxCell>
        <mxCell id="Y1b6gKu8gfl-M3p3f_V2-35" value="" style="endArrow=classic;html=1;rounded=0;dashed=1;dashPattern=8 8;" parent="1" source="Y1b6gKu8gfl-M3p3f_V2-17" target="Y1b6gKu8gfl-M3p3f_V2-30" edge="1">
          <mxGeometry width="50" height="50" relative="1" as="geometry">
            <mxPoint x="540" y="492" as="sourcePoint" />
            <mxPoint x="280" y="478" as="targetPoint" />
          </mxGeometry>
        </mxCell>
      </root>
    </mxGraphModel>
  </diagram>
  <diagram id="aV7jTG_ctruBQ6M0eJMj" name="Page-2">
    <mxGraphModel dx="794" dy="528" grid="1" gridSize="10" guides="1" tooltips="1" connect="1" arrows="1" fold="1" page="1" pageScale="1" pageWidth="1169" pageHeight="827" math="0" shadow="0">
      <root>
        <mxCell id="0" />
        <mxCell id="1" parent="0" />
        <mxCell id="_n48F2MpI-nwK8NvKfTm-61" value="" style="group" vertex="1" connectable="0" parent="1">
          <mxGeometry x="240" y="40" width="560" height="490" as="geometry" />
        </mxCell>
        <mxCell id="_n48F2MpI-nwK8NvKfTm-1" value="app" style="rounded=0;whiteSpace=wrap;html=1;fontFamily=Sofia Sans Semi Condensed;fontSize=14;" vertex="1" parent="_n48F2MpI-nwK8NvKfTm-61">
          <mxGeometry width="120" height="30" as="geometry" />
        </mxCell>
        <mxCell id="_n48F2MpI-nwK8NvKfTm-2" value="" style="rounded=0;whiteSpace=wrap;html=1;fontFamily=Sofia Sans Semi Condensed;fontSize=14;" vertex="1" parent="_n48F2MpI-nwK8NvKfTm-61">
          <mxGeometry y="30" width="560" height="460" as="geometry" />
        </mxCell>
        <mxCell id="_n48F2MpI-nwK8NvKfTm-4" value="okh" style="rounded=0;whiteSpace=wrap;html=1;fontFamily=Sofia Sans Semi Condensed;fontSize=14;" vertex="1" parent="_n48F2MpI-nwK8NvKfTm-61">
          <mxGeometry x="250" y="430" width="120" height="30" as="geometry" />
        </mxCell>
        <mxCell id="_n48F2MpI-nwK8NvKfTm-31" value="" style="group" vertex="1" connectable="0" parent="_n48F2MpI-nwK8NvKfTm-61">
          <mxGeometry x="100" y="400" width="115" height="60" as="geometry" />
        </mxCell>
        <mxCell id="_n48F2MpI-nwK8NvKfTm-32" value="" style="rounded=0;whiteSpace=wrap;html=1;fontFamily=Sofia Sans Semi Condensed;fontSize=14;container=0;" vertex="1" parent="_n48F2MpI-nwK8NvKfTm-31">
          <mxGeometry width="50" height="20" as="geometry" />
        </mxCell>
        <mxCell id="_n48F2MpI-nwK8NvKfTm-33" value="okh-data" style="rounded=0;whiteSpace=wrap;html=1;fontFamily=Sofia Sans Semi Condensed;fontSize=14;container=0;" vertex="1" parent="_n48F2MpI-nwK8NvKfTm-31">
          <mxGeometry y="20" width="115" height="40" as="geometry" />
        </mxCell>
        <mxCell id="_n48F2MpI-nwK8NvKfTm-34" value="" style="group" vertex="1" connectable="0" parent="_n48F2MpI-nwK8NvKfTm-61">
          <mxGeometry x="410" y="400" width="115" height="60" as="geometry" />
        </mxCell>
        <mxCell id="_n48F2MpI-nwK8NvKfTm-35" value="" style="rounded=0;whiteSpace=wrap;html=1;fontFamily=Sofia Sans Semi Condensed;fontSize=14;container=0;" vertex="1" parent="_n48F2MpI-nwK8NvKfTm-34">
          <mxGeometry width="50" height="20" as="geometry" />
        </mxCell>
        <mxCell id="_n48F2MpI-nwK8NvKfTm-36" value="okh-meta" style="rounded=0;whiteSpace=wrap;html=1;fontFamily=Sofia Sans Semi Condensed;fontSize=14;container=0;" vertex="1" parent="_n48F2MpI-nwK8NvKfTm-34">
          <mxGeometry y="20" width="115" height="40" as="geometry" />
        </mxCell>
        <mxCell id="_n48F2MpI-nwK8NvKfTm-56" value="" style="group" vertex="1" connectable="0" parent="_n48F2MpI-nwK8NvKfTm-61">
          <mxGeometry x="50" y="60" width="190" height="290" as="geometry" />
        </mxCell>
        <mxCell id="_n48F2MpI-nwK8NvKfTm-6" value="okh-api" style="rounded=0;whiteSpace=wrap;html=1;fontFamily=Sofia Sans Semi Condensed;fontSize=14;" vertex="1" parent="_n48F2MpI-nwK8NvKfTm-56">
          <mxGeometry width="120" height="30" as="geometry" />
        </mxCell>
        <mxCell id="_n48F2MpI-nwK8NvKfTm-7" value="" style="rounded=0;whiteSpace=wrap;html=1;fontFamily=Sofia Sans Semi Condensed;fontSize=14;" vertex="1" parent="_n48F2MpI-nwK8NvKfTm-56">
          <mxGeometry y="30" width="190" height="260" as="geometry" />
        </mxCell>
        <mxCell id="_n48F2MpI-nwK8NvKfTm-24" value="" style="group" vertex="1" connectable="0" parent="_n48F2MpI-nwK8NvKfTm-56">
          <mxGeometry x="30" y="130" width="115" height="60" as="geometry" />
        </mxCell>
        <mxCell id="_n48F2MpI-nwK8NvKfTm-19" value="" style="rounded=0;whiteSpace=wrap;html=1;fontFamily=Sofia Sans Semi Condensed;fontSize=14;container=0;" vertex="1" parent="_n48F2MpI-nwK8NvKfTm-24">
          <mxGeometry width="50" height="20" as="geometry" />
        </mxCell>
        <mxCell id="_n48F2MpI-nwK8NvKfTm-20" value="services" style="rounded=0;whiteSpace=wrap;html=1;fontFamily=Sofia Sans Semi Condensed;fontSize=14;container=0;" vertex="1" parent="_n48F2MpI-nwK8NvKfTm-24">
          <mxGeometry y="20" width="115" height="40" as="geometry" />
        </mxCell>
        <mxCell id="_n48F2MpI-nwK8NvKfTm-28" value="" style="group" vertex="1" connectable="0" parent="_n48F2MpI-nwK8NvKfTm-56">
          <mxGeometry x="30" y="210" width="115" height="60" as="geometry" />
        </mxCell>
        <mxCell id="_n48F2MpI-nwK8NvKfTm-29" value="" style="rounded=0;whiteSpace=wrap;html=1;fontFamily=Sofia Sans Semi Condensed;fontSize=14;container=0;" vertex="1" parent="_n48F2MpI-nwK8NvKfTm-28">
          <mxGeometry width="50" height="20" as="geometry" />
        </mxCell>
        <mxCell id="_n48F2MpI-nwK8NvKfTm-30" value="interceptors" style="rounded=0;whiteSpace=wrap;html=1;fontFamily=Sofia Sans Semi Condensed;fontSize=14;container=0;" vertex="1" parent="_n48F2MpI-nwK8NvKfTm-28">
          <mxGeometry y="20" width="115" height="40" as="geometry" />
        </mxCell>
        <mxCell id="_n48F2MpI-nwK8NvKfTm-53" value="" style="endArrow=classic;html=1;rounded=0;dashed=1;dashPattern=8 8;" edge="1" parent="_n48F2MpI-nwK8NvKfTm-56" source="_n48F2MpI-nwK8NvKfTm-20" target="_n48F2MpI-nwK8NvKfTm-30">
          <mxGeometry width="50" height="50" relative="1" as="geometry">
            <mxPoint x="326" y="240" as="sourcePoint" />
            <mxPoint x="139" y="120" as="targetPoint" />
          </mxGeometry>
        </mxCell>
        <mxCell id="_n48F2MpI-nwK8NvKfTm-25" value="" style="group" vertex="1" connectable="0" parent="_n48F2MpI-nwK8NvKfTm-56">
          <mxGeometry x="30" y="50" width="115" height="60" as="geometry" />
        </mxCell>
        <mxCell id="_n48F2MpI-nwK8NvKfTm-26" value="" style="rounded=0;whiteSpace=wrap;html=1;fontFamily=Sofia Sans Semi Condensed;fontSize=14;container=0;" vertex="1" parent="_n48F2MpI-nwK8NvKfTm-25">
          <mxGeometry width="50" height="20" as="geometry" />
        </mxCell>
        <mxCell id="_n48F2MpI-nwK8NvKfTm-27" value="routes" style="rounded=0;whiteSpace=wrap;html=1;fontFamily=Sofia Sans Semi Condensed;fontSize=14;container=0;" vertex="1" parent="_n48F2MpI-nwK8NvKfTm-25">
          <mxGeometry y="20" width="115" height="40" as="geometry" />
        </mxCell>
        <mxCell id="_n48F2MpI-nwK8NvKfTm-54" value="" style="endArrow=classic;html=1;rounded=0;dashed=1;dashPattern=8 8;" edge="1" parent="_n48F2MpI-nwK8NvKfTm-56" source="_n48F2MpI-nwK8NvKfTm-20" target="_n48F2MpI-nwK8NvKfTm-27">
          <mxGeometry width="50" height="50" relative="1" as="geometry">
            <mxPoint x="336" y="250" as="sourcePoint" />
            <mxPoint x="270" y="340" as="targetPoint" />
          </mxGeometry>
        </mxCell>
        <mxCell id="_n48F2MpI-nwK8NvKfTm-55" value="" style="group" vertex="1" connectable="0" parent="_n48F2MpI-nwK8NvKfTm-61">
          <mxGeometry x="345" y="60" width="180" height="290" as="geometry" />
        </mxCell>
        <mxCell id="_n48F2MpI-nwK8NvKfTm-38" value="roles" style="rounded=0;whiteSpace=wrap;html=1;fontFamily=Sofia Sans Semi Condensed;fontSize=14;" vertex="1" parent="_n48F2MpI-nwK8NvKfTm-55">
          <mxGeometry width="120" height="30" as="geometry" />
        </mxCell>
        <mxCell id="_n48F2MpI-nwK8NvKfTm-39" value="" style="rounded=0;whiteSpace=wrap;html=1;fontFamily=Sofia Sans Semi Condensed;fontSize=14;" vertex="1" parent="_n48F2MpI-nwK8NvKfTm-55">
          <mxGeometry y="30" width="180" height="260" as="geometry" />
        </mxCell>
        <mxCell id="_n48F2MpI-nwK8NvKfTm-40" value="" style="group" vertex="1" connectable="0" parent="_n48F2MpI-nwK8NvKfTm-55">
          <mxGeometry x="30" y="210" width="115" height="60" as="geometry" />
        </mxCell>
        <mxCell id="_n48F2MpI-nwK8NvKfTm-41" value="" style="rounded=0;whiteSpace=wrap;html=1;fontFamily=Sofia Sans Semi Condensed;fontSize=14;container=0;" vertex="1" parent="_n48F2MpI-nwK8NvKfTm-40">
          <mxGeometry width="50" height="20" as="geometry" />
        </mxCell>
        <mxCell id="_n48F2MpI-nwK8NvKfTm-42" value="admin" style="rounded=0;whiteSpace=wrap;html=1;fontFamily=Sofia Sans Semi Condensed;fontSize=14;container=0;" vertex="1" parent="_n48F2MpI-nwK8NvKfTm-40">
          <mxGeometry y="20" width="115" height="40" as="geometry" />
        </mxCell>
        <mxCell id="_n48F2MpI-nwK8NvKfTm-43" value="" style="group" vertex="1" connectable="0" parent="_n48F2MpI-nwK8NvKfTm-55">
          <mxGeometry x="30" y="50" width="115" height="60" as="geometry" />
        </mxCell>
        <mxCell id="_n48F2MpI-nwK8NvKfTm-44" value="" style="rounded=0;whiteSpace=wrap;html=1;fontFamily=Sofia Sans Semi Condensed;fontSize=14;container=0;" vertex="1" parent="_n48F2MpI-nwK8NvKfTm-43">
          <mxGeometry width="50" height="20" as="geometry" />
        </mxCell>
        <mxCell id="_n48F2MpI-nwK8NvKfTm-45" value="guest" style="rounded=0;whiteSpace=wrap;html=1;fontFamily=Sofia Sans Semi Condensed;fontSize=14;container=0;" vertex="1" parent="_n48F2MpI-nwK8NvKfTm-43">
          <mxGeometry y="20" width="115" height="40" as="geometry" />
        </mxCell>
        <mxCell id="_n48F2MpI-nwK8NvKfTm-46" value="" style="group" vertex="1" connectable="0" parent="_n48F2MpI-nwK8NvKfTm-55">
          <mxGeometry x="30" y="130" width="115" height="60" as="geometry" />
        </mxCell>
        <mxCell id="_n48F2MpI-nwK8NvKfTm-47" value="" style="rounded=0;whiteSpace=wrap;html=1;fontFamily=Sofia Sans Semi Condensed;fontSize=14;container=0;" vertex="1" parent="_n48F2MpI-nwK8NvKfTm-46">
          <mxGeometry width="50" height="20" as="geometry" />
        </mxCell>
        <mxCell id="_n48F2MpI-nwK8NvKfTm-48" value="user" style="rounded=0;whiteSpace=wrap;html=1;fontFamily=Sofia Sans Semi Condensed;fontSize=14;container=0;" vertex="1" parent="_n48F2MpI-nwK8NvKfTm-46">
          <mxGeometry y="20" width="115" height="40" as="geometry" />
        </mxCell>
        <mxCell id="_n48F2MpI-nwK8NvKfTm-52" value="" style="endArrow=classic;html=1;rounded=0;dashed=1;dashPattern=8 8;" edge="1" parent="_n48F2MpI-nwK8NvKfTm-61" source="_n48F2MpI-nwK8NvKfTm-42" target="_n48F2MpI-nwK8NvKfTm-20">
          <mxGeometry width="50" height="50" relative="1" as="geometry">
            <mxPoint x="550" y="86" as="sourcePoint" />
            <mxPoint x="405" y="74" as="targetPoint" />
          </mxGeometry>
        </mxCell>
        <mxCell id="_n48F2MpI-nwK8NvKfTm-50" value="" style="endArrow=classic;html=1;rounded=0;dashed=1;dashPattern=8 8;" edge="1" parent="_n48F2MpI-nwK8NvKfTm-61" source="_n48F2MpI-nwK8NvKfTm-45" target="_n48F2MpI-nwK8NvKfTm-20">
          <mxGeometry width="50" height="50" relative="1" as="geometry">
            <mxPoint x="440" y="320" as="sourcePoint" />
            <mxPoint x="490" y="270" as="targetPoint" />
          </mxGeometry>
        </mxCell>
        <mxCell id="_n48F2MpI-nwK8NvKfTm-51" value="" style="endArrow=classic;html=1;rounded=0;dashed=1;dashPattern=8 8;" edge="1" parent="_n48F2MpI-nwK8NvKfTm-61" source="_n48F2MpI-nwK8NvKfTm-48" target="_n48F2MpI-nwK8NvKfTm-20">
          <mxGeometry width="50" height="50" relative="1" as="geometry">
            <mxPoint x="540" y="76" as="sourcePoint" />
            <mxPoint x="395" y="64" as="targetPoint" />
          </mxGeometry>
        </mxCell>
        <mxCell id="_n48F2MpI-nwK8NvKfTm-57" value="" style="endArrow=classic;html=1;rounded=0;dashed=1;dashPattern=8 8;" edge="1" parent="_n48F2MpI-nwK8NvKfTm-61" source="_n48F2MpI-nwK8NvKfTm-39" target="_n48F2MpI-nwK8NvKfTm-33">
          <mxGeometry width="50" height="50" relative="1" as="geometry">
            <mxPoint x="385" y="176" as="sourcePoint" />
            <mxPoint x="205" y="224" as="targetPoint" />
          </mxGeometry>
        </mxCell>
        <mxCell id="_n48F2MpI-nwK8NvKfTm-58" value="" style="endArrow=classic;html=1;rounded=0;dashed=1;dashPattern=8 8;" edge="1" parent="_n48F2MpI-nwK8NvKfTm-61" source="_n48F2MpI-nwK8NvKfTm-7" target="_n48F2MpI-nwK8NvKfTm-33">
          <mxGeometry width="50" height="50" relative="1" as="geometry">
            <mxPoint x="395" y="186" as="sourcePoint" />
            <mxPoint x="290" y="550.6666870117188" as="targetPoint" />
          </mxGeometry>
        </mxCell>
        <mxCell id="_n48F2MpI-nwK8NvKfTm-59" value="" style="endArrow=classic;html=1;rounded=0;dashed=1;dashPattern=8 8;" edge="1" parent="_n48F2MpI-nwK8NvKfTm-61" source="_n48F2MpI-nwK8NvKfTm-36" target="_n48F2MpI-nwK8NvKfTm-4">
          <mxGeometry width="50" height="50" relative="1" as="geometry">
            <mxPoint x="355" y="356" as="sourcePoint" />
            <mxPoint x="302" y="430" as="targetPoint" />
          </mxGeometry>
        </mxCell>
        <mxCell id="_n48F2MpI-nwK8NvKfTm-60" value="" style="endArrow=classic;html=1;rounded=0;dashed=1;dashPattern=8 8;" edge="1" parent="_n48F2MpI-nwK8NvKfTm-61" source="_n48F2MpI-nwK8NvKfTm-4" target="_n48F2MpI-nwK8NvKfTm-45">
          <mxGeometry width="50" height="50" relative="1" as="geometry">
            <mxPoint x="41" y="420" as="sourcePoint" />
            <mxPoint x="-75" y="90" as="targetPoint" />
          </mxGeometry>
        </mxCell>
      </root>
    </mxGraphModel>
  </diagram>
  <diagram id="WERawBrW_63gpLchfyOq" name="Page-3">
    <mxGraphModel dx="794" dy="528" grid="1" gridSize="10" guides="1" tooltips="1" connect="1" arrows="1" fold="1" page="1" pageScale="1" pageWidth="1169" pageHeight="827" math="0" shadow="0">
      <root>
        <mxCell id="0" />
        <mxCell id="1" parent="0" />
        <mxCell id="T7z-uWmHs2IFnDXreDLj-11" value="clientes" style="shape=table;startSize=30;container=1;collapsible=1;childLayout=tableLayout;fixedRows=1;rowLines=0;fontStyle=1;align=center;resizeLast=1;html=1;" vertex="1" parent="1">
          <mxGeometry x="130" y="260" width="180" height="210" as="geometry" />
        </mxCell>
        <mxCell id="T7z-uWmHs2IFnDXreDLj-12" value="" style="shape=tableRow;horizontal=0;startSize=0;swimlaneHead=0;swimlaneBody=0;fillColor=none;collapsible=0;dropTarget=0;points=[[0,0.5],[1,0.5]];portConstraint=eastwest;top=0;left=0;right=0;bottom=1;" vertex="1" parent="T7z-uWmHs2IFnDXreDLj-11">
          <mxGeometry y="30" width="180" height="30" as="geometry" />
        </mxCell>
        <mxCell id="T7z-uWmHs2IFnDXreDLj-13" value="PK" style="shape=partialRectangle;connectable=0;fillColor=none;top=0;left=0;bottom=0;right=0;fontStyle=1;overflow=hidden;whiteSpace=wrap;html=1;" vertex="1" parent="T7z-uWmHs2IFnDXreDLj-12">
          <mxGeometry width="30" height="30" as="geometry">
            <mxRectangle width="30" height="30" as="alternateBounds" />
          </mxGeometry>
        </mxCell>
        <mxCell id="T7z-uWmHs2IFnDXreDLj-14" value="username" style="shape=partialRectangle;connectable=0;fillColor=none;top=0;left=0;bottom=0;right=0;align=left;spacingLeft=6;fontStyle=5;overflow=hidden;whiteSpace=wrap;html=1;" vertex="1" parent="T7z-uWmHs2IFnDXreDLj-12">
          <mxGeometry x="30" width="150" height="30" as="geometry">
            <mxRectangle width="150" height="30" as="alternateBounds" />
          </mxGeometry>
        </mxCell>
        <mxCell id="T7z-uWmHs2IFnDXreDLj-15" value="" style="shape=tableRow;horizontal=0;startSize=0;swimlaneHead=0;swimlaneBody=0;fillColor=none;collapsible=0;dropTarget=0;points=[[0,0.5],[1,0.5]];portConstraint=eastwest;top=0;left=0;right=0;bottom=0;" vertex="1" parent="T7z-uWmHs2IFnDXreDLj-11">
          <mxGeometry y="60" width="180" height="30" as="geometry" />
        </mxCell>
        <mxCell id="T7z-uWmHs2IFnDXreDLj-16" value="" style="shape=partialRectangle;connectable=0;fillColor=none;top=0;left=0;bottom=0;right=0;editable=1;overflow=hidden;whiteSpace=wrap;html=1;" vertex="1" parent="T7z-uWmHs2IFnDXreDLj-15">
          <mxGeometry width="30" height="30" as="geometry">
            <mxRectangle width="30" height="30" as="alternateBounds" />
          </mxGeometry>
        </mxCell>
        <mxCell id="T7z-uWmHs2IFnDXreDLj-17" value="password" style="shape=partialRectangle;connectable=0;fillColor=none;top=0;left=0;bottom=0;right=0;align=left;spacingLeft=6;overflow=hidden;whiteSpace=wrap;html=1;" vertex="1" parent="T7z-uWmHs2IFnDXreDLj-15">
          <mxGeometry x="30" width="150" height="30" as="geometry">
            <mxRectangle width="150" height="30" as="alternateBounds" />
          </mxGeometry>
        </mxCell>
        <mxCell id="T7z-uWmHs2IFnDXreDLj-18" value="" style="shape=tableRow;horizontal=0;startSize=0;swimlaneHead=0;swimlaneBody=0;fillColor=none;collapsible=0;dropTarget=0;points=[[0,0.5],[1,0.5]];portConstraint=eastwest;top=0;left=0;right=0;bottom=0;" vertex="1" parent="T7z-uWmHs2IFnDXreDLj-11">
          <mxGeometry y="90" width="180" height="30" as="geometry" />
        </mxCell>
        <mxCell id="T7z-uWmHs2IFnDXreDLj-19" value="" style="shape=partialRectangle;connectable=0;fillColor=none;top=0;left=0;bottom=0;right=0;editable=1;overflow=hidden;whiteSpace=wrap;html=1;" vertex="1" parent="T7z-uWmHs2IFnDXreDLj-18">
          <mxGeometry width="30" height="30" as="geometry">
            <mxRectangle width="30" height="30" as="alternateBounds" />
          </mxGeometry>
        </mxCell>
        <mxCell id="T7z-uWmHs2IFnDXreDLj-20" value="eventos_aprobados" style="shape=partialRectangle;connectable=0;fillColor=none;top=0;left=0;bottom=0;right=0;align=left;spacingLeft=6;overflow=hidden;whiteSpace=wrap;html=1;" vertex="1" parent="T7z-uWmHs2IFnDXreDLj-18">
          <mxGeometry x="30" width="150" height="30" as="geometry">
            <mxRectangle width="150" height="30" as="alternateBounds" />
          </mxGeometry>
        </mxCell>
        <mxCell id="T7z-uWmHs2IFnDXreDLj-21" value="" style="shape=tableRow;horizontal=0;startSize=0;swimlaneHead=0;swimlaneBody=0;fillColor=none;collapsible=0;dropTarget=0;points=[[0,0.5],[1,0.5]];portConstraint=eastwest;top=0;left=0;right=0;bottom=0;" vertex="1" parent="T7z-uWmHs2IFnDXreDLj-11">
          <mxGeometry y="120" width="180" height="30" as="geometry" />
        </mxCell>
        <mxCell id="T7z-uWmHs2IFnDXreDLj-22" value="" style="shape=partialRectangle;connectable=0;fillColor=none;top=0;left=0;bottom=0;right=0;editable=1;overflow=hidden;whiteSpace=wrap;html=1;" vertex="1" parent="T7z-uWmHs2IFnDXreDLj-21">
          <mxGeometry width="30" height="30" as="geometry">
            <mxRectangle width="30" height="30" as="alternateBounds" />
          </mxGeometry>
        </mxCell>
        <mxCell id="T7z-uWmHs2IFnDXreDLj-23" value="eventos_eliminados" style="shape=partialRectangle;connectable=0;fillColor=none;top=0;left=0;bottom=0;right=0;align=left;spacingLeft=6;overflow=hidden;whiteSpace=wrap;html=1;" vertex="1" parent="T7z-uWmHs2IFnDXreDLj-21">
          <mxGeometry x="30" width="150" height="30" as="geometry">
            <mxRectangle width="150" height="30" as="alternateBounds" />
          </mxGeometry>
        </mxCell>
        <mxCell id="T7z-uWmHs2IFnDXreDLj-24" style="shape=tableRow;horizontal=0;startSize=0;swimlaneHead=0;swimlaneBody=0;fillColor=none;collapsible=0;dropTarget=0;points=[[0,0.5],[1,0.5]];portConstraint=eastwest;top=0;left=0;right=0;bottom=0;" vertex="1" parent="T7z-uWmHs2IFnDXreDLj-11">
          <mxGeometry y="150" width="180" height="30" as="geometry" />
        </mxCell>
        <mxCell id="T7z-uWmHs2IFnDXreDLj-25" style="shape=partialRectangle;connectable=0;fillColor=none;top=0;left=0;bottom=0;right=0;editable=1;overflow=hidden;whiteSpace=wrap;html=1;" vertex="1" parent="T7z-uWmHs2IFnDXreDLj-24">
          <mxGeometry width="30" height="30" as="geometry">
            <mxRectangle width="30" height="30" as="alternateBounds" />
          </mxGeometry>
        </mxCell>
        <mxCell id="T7z-uWmHs2IFnDXreDLj-26" value="eventos_publicados" style="shape=partialRectangle;connectable=0;fillColor=none;top=0;left=0;bottom=0;right=0;align=left;spacingLeft=6;overflow=hidden;whiteSpace=wrap;html=1;" vertex="1" parent="T7z-uWmHs2IFnDXreDLj-24">
          <mxGeometry x="30" width="150" height="30" as="geometry">
            <mxRectangle width="150" height="30" as="alternateBounds" />
          </mxGeometry>
        </mxCell>
        <mxCell id="T7z-uWmHs2IFnDXreDLj-27" style="shape=tableRow;horizontal=0;startSize=0;swimlaneHead=0;swimlaneBody=0;fillColor=none;collapsible=0;dropTarget=0;points=[[0,0.5],[1,0.5]];portConstraint=eastwest;top=0;left=0;right=0;bottom=0;" vertex="1" parent="T7z-uWmHs2IFnDXreDLj-11">
          <mxGeometry y="180" width="180" height="30" as="geometry" />
        </mxCell>
        <mxCell id="T7z-uWmHs2IFnDXreDLj-28" style="shape=partialRectangle;connectable=0;fillColor=none;top=0;left=0;bottom=0;right=0;editable=1;overflow=hidden;whiteSpace=wrap;html=1;" vertex="1" parent="T7z-uWmHs2IFnDXreDLj-27">
          <mxGeometry width="30" height="30" as="geometry">
            <mxRectangle width="30" height="30" as="alternateBounds" />
          </mxGeometry>
        </mxCell>
        <mxCell id="T7z-uWmHs2IFnDXreDLj-29" value="tiene_sancion" style="shape=partialRectangle;connectable=0;fillColor=none;top=0;left=0;bottom=0;right=0;align=left;spacingLeft=6;overflow=hidden;whiteSpace=wrap;html=1;" vertex="1" parent="T7z-uWmHs2IFnDXreDLj-27">
          <mxGeometry x="30" width="150" height="30" as="geometry">
            <mxRectangle width="150" height="30" as="alternateBounds" />
          </mxGeometry>
        </mxCell>
        <mxCell id="T7z-uWmHs2IFnDXreDLj-42" value="eventos" style="shape=table;startSize=30;container=1;collapsible=1;childLayout=tableLayout;fixedRows=1;rowLines=0;fontStyle=1;align=center;resizeLast=1;html=1;" vertex="1" parent="1">
          <mxGeometry x="380" y="230" width="180" height="360" as="geometry" />
        </mxCell>
        <mxCell id="T7z-uWmHs2IFnDXreDLj-43" value="" style="shape=tableRow;horizontal=0;startSize=0;swimlaneHead=0;swimlaneBody=0;fillColor=none;collapsible=0;dropTarget=0;points=[[0,0.5],[1,0.5]];portConstraint=eastwest;top=0;left=0;right=0;bottom=1;" vertex="1" parent="T7z-uWmHs2IFnDXreDLj-42">
          <mxGeometry y="30" width="180" height="30" as="geometry" />
        </mxCell>
        <mxCell id="T7z-uWmHs2IFnDXreDLj-44" value="PK" style="shape=partialRectangle;connectable=0;fillColor=none;top=0;left=0;bottom=0;right=0;fontStyle=1;overflow=hidden;whiteSpace=wrap;html=1;" vertex="1" parent="T7z-uWmHs2IFnDXreDLj-43">
          <mxGeometry width="30" height="30" as="geometry">
            <mxRectangle width="30" height="30" as="alternateBounds" />
          </mxGeometry>
        </mxCell>
        <mxCell id="T7z-uWmHs2IFnDXreDLj-45" value="id_evento" style="shape=partialRectangle;connectable=0;fillColor=none;top=0;left=0;bottom=0;right=0;align=left;spacingLeft=6;fontStyle=5;overflow=hidden;whiteSpace=wrap;html=1;" vertex="1" parent="T7z-uWmHs2IFnDXreDLj-43">
          <mxGeometry x="30" width="150" height="30" as="geometry">
            <mxRectangle width="150" height="30" as="alternateBounds" />
          </mxGeometry>
        </mxCell>
        <mxCell id="T7z-uWmHs2IFnDXreDLj-46" value="" style="shape=tableRow;horizontal=0;startSize=0;swimlaneHead=0;swimlaneBody=0;fillColor=none;collapsible=0;dropTarget=0;points=[[0,0.5],[1,0.5]];portConstraint=eastwest;top=0;left=0;right=0;bottom=0;" vertex="1" parent="T7z-uWmHs2IFnDXreDLj-42">
          <mxGeometry y="60" width="180" height="30" as="geometry" />
        </mxCell>
        <mxCell id="T7z-uWmHs2IFnDXreDLj-47" value="FK" style="shape=partialRectangle;connectable=0;fillColor=none;top=0;left=0;bottom=0;right=0;editable=1;overflow=hidden;whiteSpace=wrap;html=1;" vertex="1" parent="T7z-uWmHs2IFnDXreDLj-46">
          <mxGeometry width="30" height="30" as="geometry">
            <mxRectangle width="30" height="30" as="alternateBounds" />
          </mxGeometry>
        </mxCell>
        <mxCell id="T7z-uWmHs2IFnDXreDLj-48" value="username" style="shape=partialRectangle;connectable=0;fillColor=none;top=0;left=0;bottom=0;right=0;align=left;spacingLeft=6;overflow=hidden;whiteSpace=wrap;html=1;" vertex="1" parent="T7z-uWmHs2IFnDXreDLj-46">
          <mxGeometry x="30" width="150" height="30" as="geometry">
            <mxRectangle width="150" height="30" as="alternateBounds" />
          </mxGeometry>
        </mxCell>
        <mxCell id="T7z-uWmHs2IFnDXreDLj-49" value="" style="shape=tableRow;horizontal=0;startSize=0;swimlaneHead=0;swimlaneBody=0;fillColor=none;collapsible=0;dropTarget=0;points=[[0,0.5],[1,0.5]];portConstraint=eastwest;top=0;left=0;right=0;bottom=0;" vertex="1" parent="T7z-uWmHs2IFnDXreDLj-42">
          <mxGeometry y="90" width="180" height="30" as="geometry" />
        </mxCell>
        <mxCell id="T7z-uWmHs2IFnDXreDLj-50" value="" style="shape=partialRectangle;connectable=0;fillColor=none;top=0;left=0;bottom=0;right=0;editable=1;overflow=hidden;whiteSpace=wrap;html=1;" vertex="1" parent="T7z-uWmHs2IFnDXreDLj-49">
          <mxGeometry width="30" height="30" as="geometry">
            <mxRectangle width="30" height="30" as="alternateBounds" />
          </mxGeometry>
        </mxCell>
        <mxCell id="T7z-uWmHs2IFnDXreDLj-51" value="nombre" style="shape=partialRectangle;connectable=0;fillColor=none;top=0;left=0;bottom=0;right=0;align=left;spacingLeft=6;overflow=hidden;whiteSpace=wrap;html=1;" vertex="1" parent="T7z-uWmHs2IFnDXreDLj-49">
          <mxGeometry x="30" width="150" height="30" as="geometry">
            <mxRectangle width="150" height="30" as="alternateBounds" />
          </mxGeometry>
        </mxCell>
        <mxCell id="T7z-uWmHs2IFnDXreDLj-52" value="" style="shape=tableRow;horizontal=0;startSize=0;swimlaneHead=0;swimlaneBody=0;fillColor=none;collapsible=0;dropTarget=0;points=[[0,0.5],[1,0.5]];portConstraint=eastwest;top=0;left=0;right=0;bottom=0;" vertex="1" parent="T7z-uWmHs2IFnDXreDLj-42">
          <mxGeometry y="120" width="180" height="30" as="geometry" />
        </mxCell>
        <mxCell id="T7z-uWmHs2IFnDXreDLj-53" value="" style="shape=partialRectangle;connectable=0;fillColor=none;top=0;left=0;bottom=0;right=0;editable=1;overflow=hidden;whiteSpace=wrap;html=1;" vertex="1" parent="T7z-uWmHs2IFnDXreDLj-52">
          <mxGeometry width="30" height="30" as="geometry">
            <mxRectangle width="30" height="30" as="alternateBounds" />
          </mxGeometry>
        </mxCell>
        <mxCell id="T7z-uWmHs2IFnDXreDLj-54" value="lugar" style="shape=partialRectangle;connectable=0;fillColor=none;top=0;left=0;bottom=0;right=0;align=left;spacingLeft=6;overflow=hidden;whiteSpace=wrap;html=1;" vertex="1" parent="T7z-uWmHs2IFnDXreDLj-52">
          <mxGeometry x="30" width="150" height="30" as="geometry">
            <mxRectangle width="150" height="30" as="alternateBounds" />
          </mxGeometry>
        </mxCell>
        <mxCell id="T7z-uWmHs2IFnDXreDLj-85" style="shape=tableRow;horizontal=0;startSize=0;swimlaneHead=0;swimlaneBody=0;fillColor=none;collapsible=0;dropTarget=0;points=[[0,0.5],[1,0.5]];portConstraint=eastwest;top=0;left=0;right=0;bottom=0;" vertex="1" parent="T7z-uWmHs2IFnDXreDLj-42">
          <mxGeometry y="150" width="180" height="30" as="geometry" />
        </mxCell>
        <mxCell id="T7z-uWmHs2IFnDXreDLj-86" style="shape=partialRectangle;connectable=0;fillColor=none;top=0;left=0;bottom=0;right=0;editable=1;overflow=hidden;whiteSpace=wrap;html=1;" vertex="1" parent="T7z-uWmHs2IFnDXreDLj-85">
          <mxGeometry width="30" height="30" as="geometry">
            <mxRectangle width="30" height="30" as="alternateBounds" />
          </mxGeometry>
        </mxCell>
        <mxCell id="T7z-uWmHs2IFnDXreDLj-87" value="fecha" style="shape=partialRectangle;connectable=0;fillColor=none;top=0;left=0;bottom=0;right=0;align=left;spacingLeft=6;overflow=hidden;whiteSpace=wrap;html=1;" vertex="1" parent="T7z-uWmHs2IFnDXreDLj-85">
          <mxGeometry x="30" width="150" height="30" as="geometry">
            <mxRectangle width="150" height="30" as="alternateBounds" />
          </mxGeometry>
        </mxCell>
        <mxCell id="T7z-uWmHs2IFnDXreDLj-82" style="shape=tableRow;horizontal=0;startSize=0;swimlaneHead=0;swimlaneBody=0;fillColor=none;collapsible=0;dropTarget=0;points=[[0,0.5],[1,0.5]];portConstraint=eastwest;top=0;left=0;right=0;bottom=0;" vertex="1" parent="T7z-uWmHs2IFnDXreDLj-42">
          <mxGeometry y="180" width="180" height="30" as="geometry" />
        </mxCell>
        <mxCell id="T7z-uWmHs2IFnDXreDLj-83" style="shape=partialRectangle;connectable=0;fillColor=none;top=0;left=0;bottom=0;right=0;editable=1;overflow=hidden;whiteSpace=wrap;html=1;" vertex="1" parent="T7z-uWmHs2IFnDXreDLj-82">
          <mxGeometry width="30" height="30" as="geometry">
            <mxRectangle width="30" height="30" as="alternateBounds" />
          </mxGeometry>
        </mxCell>
        <mxCell id="T7z-uWmHs2IFnDXreDLj-84" value="hora" style="shape=partialRectangle;connectable=0;fillColor=none;top=0;left=0;bottom=0;right=0;align=left;spacingLeft=6;overflow=hidden;whiteSpace=wrap;html=1;" vertex="1" parent="T7z-uWmHs2IFnDXreDLj-82">
          <mxGeometry x="30" width="150" height="30" as="geometry">
            <mxRectangle width="150" height="30" as="alternateBounds" />
          </mxGeometry>
        </mxCell>
        <mxCell id="T7z-uWmHs2IFnDXreDLj-79" style="shape=tableRow;horizontal=0;startSize=0;swimlaneHead=0;swimlaneBody=0;fillColor=none;collapsible=0;dropTarget=0;points=[[0,0.5],[1,0.5]];portConstraint=eastwest;top=0;left=0;right=0;bottom=0;" vertex="1" parent="T7z-uWmHs2IFnDXreDLj-42">
          <mxGeometry y="210" width="180" height="30" as="geometry" />
        </mxCell>
        <mxCell id="T7z-uWmHs2IFnDXreDLj-80" style="shape=partialRectangle;connectable=0;fillColor=none;top=0;left=0;bottom=0;right=0;editable=1;overflow=hidden;whiteSpace=wrap;html=1;" vertex="1" parent="T7z-uWmHs2IFnDXreDLj-79">
          <mxGeometry width="30" height="30" as="geometry">
            <mxRectangle width="30" height="30" as="alternateBounds" />
          </mxGeometry>
        </mxCell>
        <mxCell id="T7z-uWmHs2IFnDXreDLj-81" value="plazas" style="shape=partialRectangle;connectable=0;fillColor=none;top=0;left=0;bottom=0;right=0;align=left;spacingLeft=6;overflow=hidden;whiteSpace=wrap;html=1;" vertex="1" parent="T7z-uWmHs2IFnDXreDLj-79">
          <mxGeometry x="30" width="150" height="30" as="geometry">
            <mxRectangle width="150" height="30" as="alternateBounds" />
          </mxGeometry>
        </mxCell>
        <mxCell id="T7z-uWmHs2IFnDXreDLj-76" style="shape=tableRow;horizontal=0;startSize=0;swimlaneHead=0;swimlaneBody=0;fillColor=none;collapsible=0;dropTarget=0;points=[[0,0.5],[1,0.5]];portConstraint=eastwest;top=0;left=0;right=0;bottom=0;" vertex="1" parent="T7z-uWmHs2IFnDXreDLj-42">
          <mxGeometry y="240" width="180" height="30" as="geometry" />
        </mxCell>
        <mxCell id="T7z-uWmHs2IFnDXreDLj-77" style="shape=partialRectangle;connectable=0;fillColor=none;top=0;left=0;bottom=0;right=0;editable=1;overflow=hidden;whiteSpace=wrap;html=1;" vertex="1" parent="T7z-uWmHs2IFnDXreDLj-76">
          <mxGeometry width="30" height="30" as="geometry">
            <mxRectangle width="30" height="30" as="alternateBounds" />
          </mxGeometry>
        </mxCell>
        <mxCell id="T7z-uWmHs2IFnDXreDLj-78" value="plazas_ocupadas" style="shape=partialRectangle;connectable=0;fillColor=none;top=0;left=0;bottom=0;right=0;align=left;spacingLeft=6;overflow=hidden;whiteSpace=wrap;html=1;" vertex="1" parent="T7z-uWmHs2IFnDXreDLj-76">
          <mxGeometry x="30" width="150" height="30" as="geometry">
            <mxRectangle width="150" height="30" as="alternateBounds" />
          </mxGeometry>
        </mxCell>
        <mxCell id="T7z-uWmHs2IFnDXreDLj-73" style="shape=tableRow;horizontal=0;startSize=0;swimlaneHead=0;swimlaneBody=0;fillColor=none;collapsible=0;dropTarget=0;points=[[0,0.5],[1,0.5]];portConstraint=eastwest;top=0;left=0;right=0;bottom=0;" vertex="1" parent="T7z-uWmHs2IFnDXreDLj-42">
          <mxGeometry y="270" width="180" height="30" as="geometry" />
        </mxCell>
        <mxCell id="T7z-uWmHs2IFnDXreDLj-74" style="shape=partialRectangle;connectable=0;fillColor=none;top=0;left=0;bottom=0;right=0;editable=1;overflow=hidden;whiteSpace=wrap;html=1;" vertex="1" parent="T7z-uWmHs2IFnDXreDLj-73">
          <mxGeometry width="30" height="30" as="geometry">
            <mxRectangle width="30" height="30" as="alternateBounds" />
          </mxGeometry>
        </mxCell>
        <mxCell id="T7z-uWmHs2IFnDXreDLj-75" value="descripcion" style="shape=partialRectangle;connectable=0;fillColor=none;top=0;left=0;bottom=0;right=0;align=left;spacingLeft=6;overflow=hidden;whiteSpace=wrap;html=1;" vertex="1" parent="T7z-uWmHs2IFnDXreDLj-73">
          <mxGeometry x="30" width="150" height="30" as="geometry">
            <mxRectangle width="150" height="30" as="alternateBounds" />
          </mxGeometry>
        </mxCell>
        <mxCell id="T7z-uWmHs2IFnDXreDLj-70" style="shape=tableRow;horizontal=0;startSize=0;swimlaneHead=0;swimlaneBody=0;fillColor=none;collapsible=0;dropTarget=0;points=[[0,0.5],[1,0.5]];portConstraint=eastwest;top=0;left=0;right=0;bottom=0;" vertex="1" parent="T7z-uWmHs2IFnDXreDLj-42">
          <mxGeometry y="300" width="180" height="30" as="geometry" />
        </mxCell>
        <mxCell id="T7z-uWmHs2IFnDXreDLj-71" style="shape=partialRectangle;connectable=0;fillColor=none;top=0;left=0;bottom=0;right=0;editable=1;overflow=hidden;whiteSpace=wrap;html=1;" vertex="1" parent="T7z-uWmHs2IFnDXreDLj-70">
          <mxGeometry width="30" height="30" as="geometry">
            <mxRectangle width="30" height="30" as="alternateBounds" />
          </mxGeometry>
        </mxCell>
        <mxCell id="T7z-uWmHs2IFnDXreDLj-72" value="link" style="shape=partialRectangle;connectable=0;fillColor=none;top=0;left=0;bottom=0;right=0;align=left;spacingLeft=6;overflow=hidden;whiteSpace=wrap;html=1;" vertex="1" parent="T7z-uWmHs2IFnDXreDLj-70">
          <mxGeometry x="30" width="150" height="30" as="geometry">
            <mxRectangle width="150" height="30" as="alternateBounds" />
          </mxGeometry>
        </mxCell>
        <mxCell id="T7z-uWmHs2IFnDXreDLj-67" style="shape=tableRow;horizontal=0;startSize=0;swimlaneHead=0;swimlaneBody=0;fillColor=none;collapsible=0;dropTarget=0;points=[[0,0.5],[1,0.5]];portConstraint=eastwest;top=0;left=0;right=0;bottom=0;" vertex="1" parent="T7z-uWmHs2IFnDXreDLj-42">
          <mxGeometry y="330" width="180" height="30" as="geometry" />
        </mxCell>
        <mxCell id="T7z-uWmHs2IFnDXreDLj-68" style="shape=partialRectangle;connectable=0;fillColor=none;top=0;left=0;bottom=0;right=0;editable=1;overflow=hidden;whiteSpace=wrap;html=1;" vertex="1" parent="T7z-uWmHs2IFnDXreDLj-67">
          <mxGeometry width="30" height="30" as="geometry">
            <mxRectangle width="30" height="30" as="alternateBounds" />
          </mxGeometry>
        </mxCell>
        <mxCell id="T7z-uWmHs2IFnDXreDLj-69" value="conteo_denuncias" style="shape=partialRectangle;connectable=0;fillColor=none;top=0;left=0;bottom=0;right=0;align=left;spacingLeft=6;overflow=hidden;whiteSpace=wrap;html=1;" vertex="1" parent="T7z-uWmHs2IFnDXreDLj-67">
          <mxGeometry x="30" width="150" height="30" as="geometry">
            <mxRectangle width="150" height="30" as="alternateBounds" />
          </mxGeometry>
        </mxCell>
        <mxCell id="T7z-uWmHs2IFnDXreDLj-88" value="administradores" style="shape=table;startSize=30;container=1;collapsible=1;childLayout=tableLayout;fixedRows=1;rowLines=0;fontStyle=1;align=center;resizeLast=1;html=1;" vertex="1" parent="1">
          <mxGeometry x="130" y="500" width="180" height="90" as="geometry" />
        </mxCell>
        <mxCell id="T7z-uWmHs2IFnDXreDLj-89" value="" style="shape=tableRow;horizontal=0;startSize=0;swimlaneHead=0;swimlaneBody=0;fillColor=none;collapsible=0;dropTarget=0;points=[[0,0.5],[1,0.5]];portConstraint=eastwest;top=0;left=0;right=0;bottom=1;" vertex="1" parent="T7z-uWmHs2IFnDXreDLj-88">
          <mxGeometry y="30" width="180" height="30" as="geometry" />
        </mxCell>
        <mxCell id="T7z-uWmHs2IFnDXreDLj-90" value="PK" style="shape=partialRectangle;connectable=0;fillColor=none;top=0;left=0;bottom=0;right=0;fontStyle=1;overflow=hidden;whiteSpace=wrap;html=1;" vertex="1" parent="T7z-uWmHs2IFnDXreDLj-89">
          <mxGeometry width="30" height="30" as="geometry">
            <mxRectangle width="30" height="30" as="alternateBounds" />
          </mxGeometry>
        </mxCell>
        <mxCell id="T7z-uWmHs2IFnDXreDLj-91" value="username" style="shape=partialRectangle;connectable=0;fillColor=none;top=0;left=0;bottom=0;right=0;align=left;spacingLeft=6;fontStyle=5;overflow=hidden;whiteSpace=wrap;html=1;" vertex="1" parent="T7z-uWmHs2IFnDXreDLj-89">
          <mxGeometry x="30" width="150" height="30" as="geometry">
            <mxRectangle width="150" height="30" as="alternateBounds" />
          </mxGeometry>
        </mxCell>
        <mxCell id="T7z-uWmHs2IFnDXreDLj-92" value="" style="shape=tableRow;horizontal=0;startSize=0;swimlaneHead=0;swimlaneBody=0;fillColor=none;collapsible=0;dropTarget=0;points=[[0,0.5],[1,0.5]];portConstraint=eastwest;top=0;left=0;right=0;bottom=0;" vertex="1" parent="T7z-uWmHs2IFnDXreDLj-88">
          <mxGeometry y="60" width="180" height="30" as="geometry" />
        </mxCell>
        <mxCell id="T7z-uWmHs2IFnDXreDLj-93" value="" style="shape=partialRectangle;connectable=0;fillColor=none;top=0;left=0;bottom=0;right=0;editable=1;overflow=hidden;whiteSpace=wrap;html=1;" vertex="1" parent="T7z-uWmHs2IFnDXreDLj-92">
          <mxGeometry width="30" height="30" as="geometry">
            <mxRectangle width="30" height="30" as="alternateBounds" />
          </mxGeometry>
        </mxCell>
        <mxCell id="T7z-uWmHs2IFnDXreDLj-94" value="password" style="shape=partialRectangle;connectable=0;fillColor=none;top=0;left=0;bottom=0;right=0;align=left;spacingLeft=6;overflow=hidden;whiteSpace=wrap;html=1;" vertex="1" parent="T7z-uWmHs2IFnDXreDLj-92">
          <mxGeometry x="30" width="150" height="30" as="geometry">
            <mxRectangle width="150" height="30" as="alternateBounds" />
          </mxGeometry>
        </mxCell>
        <mxCell id="T7z-uWmHs2IFnDXreDLj-101" value="asistencias" style="shape=table;startSize=30;container=1;collapsible=1;childLayout=tableLayout;fixedRows=1;rowLines=0;fontStyle=1;align=center;resizeLast=1;html=1;" vertex="1" parent="1">
          <mxGeometry x="660" y="240" width="220" height="90" as="geometry" />
        </mxCell>
        <mxCell id="T7z-uWmHs2IFnDXreDLj-102" value="" style="shape=tableRow;horizontal=0;startSize=0;swimlaneHead=0;swimlaneBody=0;fillColor=none;collapsible=0;dropTarget=0;points=[[0,0.5],[1,0.5]];portConstraint=eastwest;top=0;left=0;right=0;bottom=0;" vertex="1" parent="T7z-uWmHs2IFnDXreDLj-101">
          <mxGeometry y="30" width="220" height="30" as="geometry" />
        </mxCell>
        <mxCell id="T7z-uWmHs2IFnDXreDLj-103" value="PK,FK" style="shape=partialRectangle;connectable=0;fillColor=none;top=0;left=0;bottom=0;right=0;fontStyle=1;overflow=hidden;whiteSpace=wrap;html=1;" vertex="1" parent="T7z-uWmHs2IFnDXreDLj-102">
          <mxGeometry width="60" height="30" as="geometry">
            <mxRectangle width="60" height="30" as="alternateBounds" />
          </mxGeometry>
        </mxCell>
        <mxCell id="T7z-uWmHs2IFnDXreDLj-104" value="id_evento" style="shape=partialRectangle;connectable=0;fillColor=none;top=0;left=0;bottom=0;right=0;align=left;spacingLeft=6;fontStyle=5;overflow=hidden;whiteSpace=wrap;html=1;" vertex="1" parent="T7z-uWmHs2IFnDXreDLj-102">
          <mxGeometry x="60" width="160" height="30" as="geometry">
            <mxRectangle width="160" height="30" as="alternateBounds" />
          </mxGeometry>
        </mxCell>
        <mxCell id="T7z-uWmHs2IFnDXreDLj-114" style="shape=tableRow;horizontal=0;startSize=0;swimlaneHead=0;swimlaneBody=0;fillColor=none;collapsible=0;dropTarget=0;points=[[0,0.5],[1,0.5]];portConstraint=eastwest;top=0;left=0;right=0;bottom=1;" vertex="1" parent="T7z-uWmHs2IFnDXreDLj-101">
          <mxGeometry y="60" width="220" height="30" as="geometry" />
        </mxCell>
        <mxCell id="T7z-uWmHs2IFnDXreDLj-115" value="PK,FK" style="shape=partialRectangle;connectable=0;fillColor=none;top=0;left=0;bottom=0;right=0;fontStyle=1;overflow=hidden;whiteSpace=wrap;html=1;" vertex="1" parent="T7z-uWmHs2IFnDXreDLj-114">
          <mxGeometry width="60" height="30" as="geometry">
            <mxRectangle width="60" height="30" as="alternateBounds" />
          </mxGeometry>
        </mxCell>
        <mxCell id="T7z-uWmHs2IFnDXreDLj-116" value="username" style="shape=partialRectangle;connectable=0;fillColor=none;top=0;left=0;bottom=0;right=0;align=left;spacingLeft=6;fontStyle=5;overflow=hidden;whiteSpace=wrap;html=1;" vertex="1" parent="T7z-uWmHs2IFnDXreDLj-114">
          <mxGeometry x="60" width="160" height="30" as="geometry">
            <mxRectangle width="160" height="30" as="alternateBounds" />
          </mxGeometry>
        </mxCell>
        <mxCell id="T7z-uWmHs2IFnDXreDLj-120" value="denuncias" style="shape=table;startSize=30;container=1;collapsible=1;childLayout=tableLayout;fixedRows=1;rowLines=0;fontStyle=1;align=center;resizeLast=1;html=1;" vertex="1" parent="1">
          <mxGeometry x="660" y="340" width="220" height="120" as="geometry" />
        </mxCell>
        <mxCell id="T7z-uWmHs2IFnDXreDLj-121" value="" style="shape=tableRow;horizontal=0;startSize=0;swimlaneHead=0;swimlaneBody=0;fillColor=none;collapsible=0;dropTarget=0;points=[[0,0.5],[1,0.5]];portConstraint=eastwest;top=0;left=0;right=0;bottom=0;" vertex="1" parent="T7z-uWmHs2IFnDXreDLj-120">
          <mxGeometry y="30" width="220" height="30" as="geometry" />
        </mxCell>
        <mxCell id="T7z-uWmHs2IFnDXreDLj-122" value="PK,FK" style="shape=partialRectangle;connectable=0;fillColor=none;top=0;left=0;bottom=0;right=0;fontStyle=1;overflow=hidden;whiteSpace=wrap;html=1;" vertex="1" parent="T7z-uWmHs2IFnDXreDLj-121">
          <mxGeometry width="60" height="30" as="geometry">
            <mxRectangle width="60" height="30" as="alternateBounds" />
          </mxGeometry>
        </mxCell>
        <mxCell id="T7z-uWmHs2IFnDXreDLj-123" value="id_evento" style="shape=partialRectangle;connectable=0;fillColor=none;top=0;left=0;bottom=0;right=0;align=left;spacingLeft=6;fontStyle=5;overflow=hidden;whiteSpace=wrap;html=1;" vertex="1" parent="T7z-uWmHs2IFnDXreDLj-121">
          <mxGeometry x="60" width="160" height="30" as="geometry">
            <mxRectangle width="160" height="30" as="alternateBounds" />
          </mxGeometry>
        </mxCell>
        <mxCell id="T7z-uWmHs2IFnDXreDLj-124" style="shape=tableRow;horizontal=0;startSize=0;swimlaneHead=0;swimlaneBody=0;fillColor=none;collapsible=0;dropTarget=0;points=[[0,0.5],[1,0.5]];portConstraint=eastwest;top=0;left=0;right=0;bottom=1;" vertex="1" parent="T7z-uWmHs2IFnDXreDLj-120">
          <mxGeometry y="60" width="220" height="30" as="geometry" />
        </mxCell>
        <mxCell id="T7z-uWmHs2IFnDXreDLj-125" value="PK,FK" style="shape=partialRectangle;connectable=0;fillColor=none;top=0;left=0;bottom=0;right=0;fontStyle=1;overflow=hidden;whiteSpace=wrap;html=1;" vertex="1" parent="T7z-uWmHs2IFnDXreDLj-124">
          <mxGeometry width="60" height="30" as="geometry">
            <mxRectangle width="60" height="30" as="alternateBounds" />
          </mxGeometry>
        </mxCell>
        <mxCell id="T7z-uWmHs2IFnDXreDLj-126" value="username" style="shape=partialRectangle;connectable=0;fillColor=none;top=0;left=0;bottom=0;right=0;align=left;spacingLeft=6;fontStyle=5;overflow=hidden;whiteSpace=wrap;html=1;" vertex="1" parent="T7z-uWmHs2IFnDXreDLj-124">
          <mxGeometry x="60" width="160" height="30" as="geometry">
            <mxRectangle width="160" height="30" as="alternateBounds" />
          </mxGeometry>
        </mxCell>
        <mxCell id="T7z-uWmHs2IFnDXreDLj-127" style="shape=tableRow;horizontal=0;startSize=0;swimlaneHead=0;swimlaneBody=0;fillColor=none;collapsible=0;dropTarget=0;points=[[0,0.5],[1,0.5]];portConstraint=eastwest;top=0;left=0;right=0;bottom=1;" vertex="1" parent="T7z-uWmHs2IFnDXreDLj-120">
          <mxGeometry y="90" width="220" height="30" as="geometry" />
        </mxCell>
        <mxCell id="T7z-uWmHs2IFnDXreDLj-128" style="shape=partialRectangle;connectable=0;fillColor=none;top=0;left=0;bottom=0;right=0;fontStyle=1;overflow=hidden;whiteSpace=wrap;html=1;" vertex="1" parent="T7z-uWmHs2IFnDXreDLj-127">
          <mxGeometry width="60" height="30" as="geometry">
            <mxRectangle width="60" height="30" as="alternateBounds" />
          </mxGeometry>
        </mxCell>
        <mxCell id="T7z-uWmHs2IFnDXreDLj-129" value="motivo" style="shape=partialRectangle;connectable=0;fillColor=none;top=0;left=0;bottom=0;right=0;align=left;spacingLeft=6;fontStyle=0;overflow=hidden;whiteSpace=wrap;html=1;" vertex="1" parent="T7z-uWmHs2IFnDXreDLj-127">
          <mxGeometry x="60" width="160" height="30" as="geometry">
            <mxRectangle width="160" height="30" as="alternateBounds" />
          </mxGeometry>
        </mxCell>
        <mxCell id="T7z-uWmHs2IFnDXreDLj-130" value="" style="edgeStyle=entityRelationEdgeStyle;fontSize=12;html=1;endArrow=ERzeroToMany;rounded=0;endFill=0;" edge="1" parent="1" source="T7z-uWmHs2IFnDXreDLj-43" target="T7z-uWmHs2IFnDXreDLj-121">
          <mxGeometry width="100" height="100" relative="1" as="geometry">
            <mxPoint x="530" y="810" as="sourcePoint" />
            <mxPoint x="300" y="710" as="targetPoint" />
          </mxGeometry>
        </mxCell>
        <mxCell id="T7z-uWmHs2IFnDXreDLj-131" value="" style="edgeStyle=entityRelationEdgeStyle;fontSize=12;html=1;endArrow=ERoneToMany;rounded=0;" edge="1" parent="1" source="T7z-uWmHs2IFnDXreDLj-43" target="T7z-uWmHs2IFnDXreDLj-102">
          <mxGeometry width="100" height="100" relative="1" as="geometry">
            <mxPoint x="570" y="315" as="sourcePoint" />
            <mxPoint x="660" y="645" as="targetPoint" />
          </mxGeometry>
        </mxCell>
        <mxCell id="T7z-uWmHs2IFnDXreDLj-132" value="" style="edgeStyle=entityRelationEdgeStyle;fontSize=12;html=1;endArrow=ERzeroToMany;rounded=0;endFill=0;" edge="1" parent="1" source="T7z-uWmHs2IFnDXreDLj-46" target="T7z-uWmHs2IFnDXreDLj-124">
          <mxGeometry width="100" height="100" relative="1" as="geometry">
            <mxPoint x="570" y="285" as="sourcePoint" />
            <mxPoint x="660" y="645" as="targetPoint" />
          </mxGeometry>
        </mxCell>
        <mxCell id="T7z-uWmHs2IFnDXreDLj-133" value="" style="edgeStyle=entityRelationEdgeStyle;fontSize=12;html=1;endArrow=ERzeroToMany;rounded=0;endFill=0;" edge="1" parent="1" source="T7z-uWmHs2IFnDXreDLj-12" target="T7z-uWmHs2IFnDXreDLj-46">
          <mxGeometry width="100" height="100" relative="1" as="geometry">
            <mxPoint x="570" y="285" as="sourcePoint" />
            <mxPoint x="360" y="380" as="targetPoint" />
          </mxGeometry>
        </mxCell>
      </root>
    </mxGraphModel>
  </diagram>
  <diagram id="BM1pDJw74z0li_nbnO96" name="Page-4">
    <mxGraphModel dx="794" dy="528" grid="1" gridSize="10" guides="1" tooltips="1" connect="1" arrows="1" fold="1" page="1" pageScale="1" pageWidth="1169" pageHeight="827" math="0" shadow="0">
      <root>
        <mxCell id="0" />
        <mxCell id="1" parent="0" />
        <mxCell id="44Spu0XgKiEM1tmUy95Z-9" value="" style="group" parent="1" vertex="1" connectable="0">
          <mxGeometry x="510" y="60" width="160" height="130" as="geometry" />
        </mxCell>
        <mxCell id="44Spu0XgKiEM1tmUy95Z-5" value="&amp;lt;&amp;lt;database system&amp;gt;&amp;gt;&lt;div style=&quot;font-size: 14px;&quot;&gt;MariaDB&lt;/div&gt;" style="verticalAlign=top;align=center;spacingTop=8;spacingLeft=2;spacingRight=12;shape=cube;size=10;direction=south;fontStyle=4;html=1;whiteSpace=wrap;fontFamily=Sofia Sans Semi Condensed;fontSize=14;" parent="44Spu0XgKiEM1tmUy95Z-9" vertex="1">
          <mxGeometry width="160" height="130" as="geometry" />
        </mxCell>
        <mxCell id="44Spu0XgKiEM1tmUy95Z-6" value="&amp;lt;&amp;lt;artifact&amp;gt;&amp;gt;&lt;br&gt;okh-db" style="html=1;whiteSpace=wrap;" parent="44Spu0XgKiEM1tmUy95Z-9" vertex="1">
          <mxGeometry x="20" y="60" width="110" height="50" as="geometry" />
        </mxCell>
        <mxCell id="44Spu0XgKiEM1tmUy95Z-10" value="" style="group" parent="1" vertex="1" connectable="0">
          <mxGeometry x="240" y="110" width="170" height="130" as="geometry" />
        </mxCell>
        <mxCell id="44Spu0XgKiEM1tmUy95Z-1" value="&amp;lt;&amp;lt;web server&amp;gt;&amp;gt;&lt;div style=&quot;font-size: 14px;&quot;&gt;Apache&lt;/div&gt;" style="verticalAlign=top;align=center;spacingTop=8;spacingLeft=2;spacingRight=12;shape=cube;size=10;direction=south;fontStyle=4;html=1;whiteSpace=wrap;fontFamily=Sofia Sans Semi Condensed;fontSize=14;" parent="44Spu0XgKiEM1tmUy95Z-10" vertex="1">
          <mxGeometry width="170" height="130" as="geometry" />
        </mxCell>
        <mxCell id="44Spu0XgKiEM1tmUy95Z-3" value="&amp;lt;&amp;lt;artifact&amp;gt;&amp;gt;&lt;br&gt;okh-backend" style="html=1;whiteSpace=wrap;" parent="44Spu0XgKiEM1tmUy95Z-10" vertex="1">
          <mxGeometry x="25" y="60" width="110" height="50" as="geometry" />
        </mxCell>
        <mxCell id="44Spu0XgKiEM1tmUy95Z-11" value="" style="group" parent="1" vertex="1" connectable="0">
          <mxGeometry x="530" y="260" width="160" height="130" as="geometry" />
        </mxCell>
        <mxCell id="44Spu0XgKiEM1tmUy95Z-4" value="&amp;lt;&amp;lt;web server&amp;gt;&amp;gt;&lt;div style=&quot;font-size: 14px;&quot;&gt;Angular CLI&lt;/div&gt;" style="verticalAlign=top;align=center;spacingTop=8;spacingLeft=2;spacingRight=12;shape=cube;size=10;direction=south;fontStyle=4;html=1;whiteSpace=wrap;fontFamily=Sofia Sans Semi Condensed;fontSize=14;" parent="44Spu0XgKiEM1tmUy95Z-11" vertex="1">
          <mxGeometry width="160" height="130" as="geometry" />
        </mxCell>
        <mxCell id="44Spu0XgKiEM1tmUy95Z-2" value="&amp;lt;&amp;lt;artifact&amp;gt;&amp;gt;&lt;br&gt;okh-frontend" style="html=1;whiteSpace=wrap;" parent="44Spu0XgKiEM1tmUy95Z-11" vertex="1">
          <mxGeometry x="20" y="60" width="110" height="50" as="geometry" />
        </mxCell>
        <mxCell id="44Spu0XgKiEM1tmUy95Z-8" value="&amp;lt;&amp;lt;protocol&amp;gt;&amp;gt;&lt;br&gt;TCP/IP" style="endArrow=none;html=1;rounded=0;" parent="1" source="44Spu0XgKiEM1tmUy95Z-6" target="44Spu0XgKiEM1tmUy95Z-3" edge="1">
          <mxGeometry width="50" height="50" relative="1" as="geometry">
            <mxPoint x="580" y="370" as="sourcePoint" />
            <mxPoint x="630" y="320" as="targetPoint" />
          </mxGeometry>
        </mxCell>
        <mxCell id="ckX4uRRSOzQhY3dCnuSE-1" value="" style="group" vertex="1" connectable="0" parent="1">
          <mxGeometry x="170" y="340" width="160" height="130" as="geometry" />
        </mxCell>
        <mxCell id="ckX4uRRSOzQhY3dCnuSE-2" value="&amp;lt;&amp;lt;web browser&amp;gt;&amp;gt;&lt;div style=&quot;font-size: 14px;&quot;&gt;Firefox&lt;/div&gt;" style="verticalAlign=top;align=center;spacingTop=8;spacingLeft=2;spacingRight=12;shape=cube;size=10;direction=south;fontStyle=4;html=1;whiteSpace=wrap;fontFamily=Sofia Sans Semi Condensed;fontSize=14;" vertex="1" parent="ckX4uRRSOzQhY3dCnuSE-1">
          <mxGeometry width="160" height="130" as="geometry" />
        </mxCell>
        <mxCell id="ckX4uRRSOzQhY3dCnuSE-3" value="&amp;lt;&amp;lt;artifact&amp;gt;&amp;gt;&lt;br&gt;okh-webapp" style="html=1;whiteSpace=wrap;" vertex="1" parent="ckX4uRRSOzQhY3dCnuSE-1">
          <mxGeometry x="20" y="60" width="110" height="50" as="geometry" />
        </mxCell>
        <mxCell id="ckX4uRRSOzQhY3dCnuSE-4" value="&amp;lt;&amp;lt;protocol&amp;gt;&amp;gt;&lt;br&gt;TCP/IP" style="endArrow=none;html=1;rounded=0;" edge="1" parent="1" source="44Spu0XgKiEM1tmUy95Z-1" target="ckX4uRRSOzQhY3dCnuSE-2">
          <mxGeometry width="50" height="50" relative="1" as="geometry">
            <mxPoint x="540" y="165" as="sourcePoint" />
            <mxPoint x="385" y="195" as="targetPoint" />
          </mxGeometry>
        </mxCell>
        <mxCell id="ckX4uRRSOzQhY3dCnuSE-5" value="&amp;lt;&amp;lt;protocol&amp;gt;&amp;gt;&lt;br&gt;TCP/IP" style="endArrow=none;html=1;rounded=0;" edge="1" parent="1" source="44Spu0XgKiEM1tmUy95Z-4" target="ckX4uRRSOzQhY3dCnuSE-2">
          <mxGeometry width="50" height="50" relative="1" as="geometry">
            <mxPoint x="550" y="175" as="sourcePoint" />
            <mxPoint x="395" y="205" as="targetPoint" />
          </mxGeometry>
        </mxCell>
      </root>
    </mxGraphModel>
  </diagram>
  <diagram id="VMUIdicsjJXkuNaOKYqj" name="Page-5">
    <mxGraphModel dx="756" dy="503" grid="1" gridSize="10" guides="1" tooltips="1" connect="1" arrows="1" fold="1" page="1" pageScale="1" pageWidth="1169" pageHeight="827" math="0" shadow="0">
      <root>
        <mxCell id="0" />
        <mxCell id="1" parent="0" />
        <mxCell id="SRINb8BZFEKeE-GZtiHP-1" value=":User" style="shape=umlLifeline;perimeter=lifelinePerimeter;whiteSpace=wrap;html=1;container=1;dropTarget=0;collapsible=0;recursiveResize=0;outlineConnect=0;portConstraint=eastwest;newEdgeStyle={&quot;curved&quot;:0,&quot;rounded&quot;:0};fontFamily=Sofia Sans Semi Condensed;fontSize=16;" vertex="1" parent="1">
          <mxGeometry x="50" y="40" width="100" height="400" as="geometry" />
        </mxCell>
        <mxCell id="SRINb8BZFEKeE-GZtiHP-2" value=":User" style="shape=umlLifeline;perimeter=lifelinePerimeter;whiteSpace=wrap;html=1;container=1;dropTarget=0;collapsible=0;recursiveResize=0;outlineConnect=0;portConstraint=eastwest;newEdgeStyle={&quot;curved&quot;:0,&quot;rounded&quot;:0};fontFamily=Sofia Sans Semi Condensed;fontSize=16;" vertex="1" parent="1">
          <mxGeometry x="740" y="40" width="100" height="440" as="geometry" />
        </mxCell>
        <mxCell id="SRINb8BZFEKeE-GZtiHP-3" value=":Server" style="shape=umlLifeline;perimeter=lifelinePerimeter;whiteSpace=wrap;html=1;container=1;dropTarget=0;collapsible=0;recursiveResize=0;outlineConnect=0;portConstraint=eastwest;newEdgeStyle={&quot;curved&quot;:0,&quot;rounded&quot;:0};fontFamily=Sofia Sans Semi Condensed;fontSize=16;" vertex="1" parent="1">
          <mxGeometry x="980" y="40" width="100" height="440" as="geometry" />
        </mxCell>
        <mxCell id="SRINb8BZFEKeE-GZtiHP-4" value=":Server" style="shape=umlLifeline;perimeter=lifelinePerimeter;whiteSpace=wrap;html=1;container=1;dropTarget=0;collapsible=0;recursiveResize=0;outlineConnect=0;portConstraint=eastwest;newEdgeStyle={&quot;curved&quot;:0,&quot;rounded&quot;:0};fontFamily=Sofia Sans Semi Condensed;fontSize=16;" vertex="1" parent="1">
          <mxGeometry x="250" y="40" width="100" height="400" as="geometry" />
        </mxCell>
        <mxCell id="SRINb8BZFEKeE-GZtiHP-5" value=":Admin" style="shape=umlLifeline;perimeter=lifelinePerimeter;whiteSpace=wrap;html=1;container=1;dropTarget=0;collapsible=0;recursiveResize=0;outlineConnect=0;portConstraint=eastwest;newEdgeStyle={&quot;curved&quot;:0,&quot;rounded&quot;:0};fontFamily=Sofia Sans Semi Condensed;fontSize=16;" vertex="1" parent="1">
          <mxGeometry x="450" y="40" width="100" height="400" as="geometry" />
        </mxCell>
        <mxCell id="SRINb8BZFEKeE-GZtiHP-7" value="add(evento)" style="endArrow=open;html=1;rounded=0;endFill=0;fontFamily=Sofia Sans Semi Condensed;fontSize=16;" edge="1" parent="1">
          <mxGeometry width="50" height="50" relative="1" as="geometry">
            <mxPoint x="99.5" y="120" as="sourcePoint" />
            <mxPoint x="299.4999999999998" y="120" as="targetPoint" />
            <Array as="points">
              <mxPoint x="130" y="120" />
            </Array>
          </mxGeometry>
        </mxCell>
        <mxCell id="SRINb8BZFEKeE-GZtiHP-8" value="eventos[evento,...]" style="endArrow=open;html=1;rounded=0;endFill=0;fontFamily=Sofia Sans Semi Condensed;fontSize=16;dashed=1;dashPattern=8 8;" edge="1" parent="1">
          <mxGeometry width="50" height="50" relative="1" as="geometry">
            <mxPoint x="299.5" y="190" as="sourcePoint" />
            <mxPoint x="499.5" y="190" as="targetPoint" />
            <Array as="points">
              <mxPoint x="470" y="190" />
            </Array>
          </mxGeometry>
        </mxCell>
        <mxCell id="SRINb8BZFEKeE-GZtiHP-9" value="delete(evento)" style="endArrow=open;html=1;rounded=0;endFill=0;fontFamily=Sofia Sans Semi Condensed;fontSize=16;" edge="1" parent="1">
          <mxGeometry width="50" height="50" relative="1" as="geometry">
            <mxPoint x="499.5" y="240" as="sourcePoint" />
            <mxPoint x="299.5" y="240" as="targetPoint" />
            <Array as="points">
              <mxPoint x="480" y="240" />
            </Array>
          </mxGeometry>
        </mxCell>
        <mxCell id="SRINb8BZFEKeE-GZtiHP-10" value="publish(evento)" style="endArrow=open;html=1;rounded=0;endFill=0;fontFamily=Sofia Sans Semi Condensed;fontSize=16;" edge="1" parent="1">
          <mxGeometry width="50" height="50" relative="1" as="geometry">
            <mxPoint x="499.5" y="320" as="sourcePoint" />
            <mxPoint x="299.5" y="320" as="targetPoint" />
          </mxGeometry>
        </mxCell>
        <mxCell id="SRINb8BZFEKeE-GZtiHP-12" value="alt" style="shape=umlFrame;whiteSpace=wrap;html=1;pointerEvents=0;fontFamily=Sofia Sans Semi Condensed;fontSize=16;" vertex="1" parent="1">
          <mxGeometry x="50" y="210" width="510" height="210" as="geometry" />
        </mxCell>
        <mxCell id="SRINb8BZFEKeE-GZtiHP-14" value="" style="endArrow=none;html=1;rounded=0;entryX=1.001;entryY=0.429;entryDx=0;entryDy=0;entryPerimeter=0;exitX=0.001;exitY=0.424;exitDx=0;exitDy=0;exitPerimeter=0;dashed=1;dashPattern=8 8;" edge="1" parent="1">
          <mxGeometry width="50" height="50" relative="1" as="geometry">
            <mxPoint x="50" y="284.5199999999999" as="sourcePoint" />
            <mxPoint x="560" y="285.2699999999999" as="targetPoint" />
          </mxGeometry>
        </mxCell>
        <mxCell id="SRINb8BZFEKeE-GZtiHP-16" value="" style="shape=umlDestroy;whiteSpace=wrap;html=1;strokeWidth=3;targetShapes=umlLifeline;" vertex="1" parent="1">
          <mxGeometry x="290" y="250" width="20" height="20" as="geometry" />
        </mxCell>
        <mxCell id="SRINb8BZFEKeE-GZtiHP-17" value="eventos[evento,...]" style="endArrow=open;html=1;rounded=0;endFill=0;fontFamily=Sofia Sans Semi Condensed;fontSize=16;dashed=1;dashPattern=8 8;" edge="1" parent="1">
          <mxGeometry width="50" height="50" relative="1" as="geometry">
            <mxPoint x="299.9499999999998" y="390" as="sourcePoint" />
            <mxPoint x="99.99761904761903" y="390" as="targetPoint" />
          </mxGeometry>
        </mxCell>
        <mxCell id="SRINb8BZFEKeE-GZtiHP-18" value=":Admin" style="shape=umlLifeline;perimeter=lifelinePerimeter;whiteSpace=wrap;html=1;container=1;dropTarget=0;collapsible=0;recursiveResize=0;outlineConnect=0;portConstraint=eastwest;newEdgeStyle={&quot;curved&quot;:0,&quot;rounded&quot;:0};fontFamily=Sofia Sans Semi Condensed;fontSize=16;" vertex="1" parent="1">
          <mxGeometry x="1220" y="40" width="100" height="440" as="geometry" />
        </mxCell>
        <mxCell id="SRINb8BZFEKeE-GZtiHP-19" value="denunciar(evento)" style="endArrow=open;html=1;rounded=0;endFill=0;fontFamily=Sofia Sans Semi Condensed;fontSize=16;" edge="1" parent="1" source="SRINb8BZFEKeE-GZtiHP-2" target="SRINb8BZFEKeE-GZtiHP-3">
          <mxGeometry width="50" height="50" relative="1" as="geometry">
            <mxPoint x="760" y="130" as="sourcePoint" />
            <mxPoint x="959.5" y="130" as="targetPoint" />
            <Array as="points">
              <mxPoint x="790.5" y="130" />
            </Array>
          </mxGeometry>
        </mxCell>
        <mxCell id="SRINb8BZFEKeE-GZtiHP-21" value="denuncias[evento,...]" style="endArrow=open;html=1;rounded=0;endFill=0;fontFamily=Sofia Sans Semi Condensed;fontSize=16;dashed=1;dashPattern=8 8;" edge="1" parent="1">
          <mxGeometry width="50" height="50" relative="1" as="geometry">
            <mxPoint x="1030" y="210" as="sourcePoint" />
            <mxPoint x="1269" y="210" as="targetPoint" />
            <Array as="points">
              <mxPoint x="1030.5" y="210" />
            </Array>
          </mxGeometry>
        </mxCell>
        <mxCell id="SRINb8BZFEKeE-GZtiHP-22" value="getNewEventos()" style="endArrow=open;html=1;rounded=0;endFill=0;fontFamily=Sofia Sans Semi Condensed;fontSize=16;" edge="1" parent="1">
          <mxGeometry width="50" height="50" relative="1" as="geometry">
            <mxPoint x="500" y="150" as="sourcePoint" />
            <mxPoint x="300" y="150" as="targetPoint" />
          </mxGeometry>
        </mxCell>
        <mxCell id="SRINb8BZFEKeE-GZtiHP-23" value="getDenuncias()" style="endArrow=open;html=1;rounded=0;endFill=0;fontFamily=Sofia Sans Semi Condensed;fontSize=16;" edge="1" parent="1">
          <mxGeometry width="50" height="50" relative="1" as="geometry">
            <mxPoint x="1269" y="170" as="sourcePoint" />
            <mxPoint x="1030" y="170" as="targetPoint" />
            <Array as="points">
              <mxPoint x="1030.5" y="170" />
            </Array>
          </mxGeometry>
        </mxCell>
        <mxCell id="SRINb8BZFEKeE-GZtiHP-24" value="getEventos()" style="endArrow=open;html=1;rounded=0;endFill=0;fontFamily=Sofia Sans Semi Condensed;fontSize=16;" edge="1" parent="1">
          <mxGeometry width="50" height="50" relative="1" as="geometry">
            <mxPoint x="100" y="360" as="sourcePoint" />
            <mxPoint x="299.9999999999998" y="360" as="targetPoint" />
            <Array as="points">
              <mxPoint x="130.5" y="360" />
            </Array>
          </mxGeometry>
        </mxCell>
        <mxCell id="SRINb8BZFEKeE-GZtiHP-25" value="alt" style="shape=umlFrame;whiteSpace=wrap;html=1;pointerEvents=0;fontFamily=Sofia Sans Semi Condensed;fontSize=16;" vertex="1" parent="1">
          <mxGeometry x="750" y="240" width="560" height="230" as="geometry" />
        </mxCell>
        <mxCell id="SRINb8BZFEKeE-GZtiHP-27" value="ignorarDenuncia(evento)" style="endArrow=open;html=1;rounded=0;endFill=0;fontFamily=Sofia Sans Semi Condensed;fontSize=16;" edge="1" parent="1" target="SRINb8BZFEKeE-GZtiHP-3">
          <mxGeometry width="50" height="50" relative="1" as="geometry">
            <mxPoint x="1270" y="280" as="sourcePoint" />
            <mxPoint x="1070" y="280" as="targetPoint" />
            <Array as="points">
              <mxPoint x="1250.5" y="280" />
            </Array>
          </mxGeometry>
        </mxCell>
        <mxCell id="SRINb8BZFEKeE-GZtiHP-28" value="eventos[evento,...]" style="endArrow=open;html=1;rounded=0;endFill=0;fontFamily=Sofia Sans Semi Condensed;fontSize=16;dashed=1;dashPattern=8 8;" edge="1" parent="1" source="SRINb8BZFEKeE-GZtiHP-3">
          <mxGeometry width="50" height="50" relative="1" as="geometry">
            <mxPoint x="989.9999999999998" y="344.52" as="sourcePoint" />
            <mxPoint x="790.047619047619" y="344.52" as="targetPoint" />
          </mxGeometry>
        </mxCell>
        <mxCell id="SRINb8BZFEKeE-GZtiHP-29" value="getEventos()" style="endArrow=open;html=1;rounded=0;endFill=0;fontFamily=Sofia Sans Semi Condensed;fontSize=16;" edge="1" parent="1">
          <mxGeometry width="50" height="50" relative="1" as="geometry">
            <mxPoint x="790" y="310" as="sourcePoint" />
            <mxPoint x="1029.4999999999998" y="310" as="targetPoint" />
            <Array as="points">
              <mxPoint x="820.5" y="310" />
            </Array>
          </mxGeometry>
        </mxCell>
        <mxCell id="SRINb8BZFEKeE-GZtiHP-30" value="" style="endArrow=none;html=1;rounded=0;entryX=1.003;entryY=0.599;entryDx=0;entryDy=0;entryPerimeter=0;exitX=0.002;exitY=0.604;exitDx=0;exitDy=0;exitPerimeter=0;dashed=1;dashPattern=8 8;" edge="1" parent="1" source="SRINb8BZFEKeE-GZtiHP-25" target="SRINb8BZFEKeE-GZtiHP-25">
          <mxGeometry width="50" height="50" relative="1" as="geometry">
            <mxPoint x="750" y="370" as="sourcePoint" />
            <mxPoint x="1260" y="370.75" as="targetPoint" />
          </mxGeometry>
        </mxCell>
        <mxCell id="SRINb8BZFEKeE-GZtiHP-31" value="delete(evento)" style="endArrow=open;html=1;rounded=0;endFill=0;fontFamily=Sofia Sans Semi Condensed;fontSize=16;" edge="1" parent="1">
          <mxGeometry width="50" height="50" relative="1" as="geometry">
            <mxPoint x="1270" y="400" as="sourcePoint" />
            <mxPoint x="1029.547619047619" y="400" as="targetPoint" />
            <Array as="points">
              <mxPoint x="1250.5" y="400" />
            </Array>
          </mxGeometry>
        </mxCell>
        <mxCell id="SRINb8BZFEKeE-GZtiHP-32" value="" style="shape=umlDestroy;whiteSpace=wrap;html=1;strokeWidth=3;targetShapes=umlLifeline;" vertex="1" parent="1">
          <mxGeometry x="1020" y="420" width="20" height="20" as="geometry" />
        </mxCell>
      </root>
    </mxGraphModel>
  </diagram>
</mxfile>
